Coordinates
version=1
nRows=5
nColumns=40
inDegrees=yes

Units are S.I. units (second, meters, Newtons, ...)
If the header above contains a line with 'inDegrees', this indicates whether rotational values are in degrees (yes) or radians (no).

endheader
time	pelvis_tilt	pelvis_list	pelvis_rotation	pelvis_tx	pelvis_ty	pelvis_tz	hip_flexion_r	hip_adduction_r	hip_rotation_r	knee_angle_r	knee_angle_r_beta	ankle_angle_r	subtalar_angle_r	mtp_angle_r	hip_flexion_l	hip_adduction_l	hip_rotation_l	knee_angle_l	knee_angle_l_beta	ankle_angle_l	subtalar_angle_l	mtp_angle_l	lumbar_extension	lumbar_bending	lumbar_rotation	arm_flex_r	arm_add_r	arm_rot_r	elbow_flex_r	pro_sup_r	wrist_flex_r	wrist_dev_r	arm_flex_l	arm_add_l	arm_rot_l	elbow_flex_l	pro_sup_l	wrist_flex_l	wrist_dev_l
      0.94000000	     -0.55751190	     -9.27391551	     87.83983369	      0.22353431	      0.94717755	      0.88181156	     -2.43548505	      3.51983229	      0.74552286	      6.84442239	      0.11945771	      9.44844624	      0.00000000	      0.00000000	     31.54584680	     -0.96949759	     -2.19804065	      4.29556229	      0.07497171	     -0.84549932	      0.00000000	      0.00000000	      2.61034458	     -2.04535702	      6.42866550	      0.00000000	      0.00000000	      0.00000000	      0.00000000	      0.00000000	      0.00000000	      0.00000000	      0.00000000	      0.00000000	      0.00000000	      0.00000000	      0.00000000	      0.00000000	      0.00000000
      0.95000000	     -0.57274381	     -9.40809395	     87.65856538	      0.22255162	      0.94497879	      0.87152312	     -2.85008388	      3.39606999	      0.84713945	      7.10391159	      0.12398665	      9.82190262	      0.00000000	      0.00000000	     31.59127100	     -0.87581637	     -2.05356917	      3.72088988	      0.06494178	     -0.57018800	      0.00000000	      0.00000000	      2.86595276	     -2.01702856	      6.55032880	      0.00000000	      0.00000000	      0.00000000	      0.00000000	      0.00000000	      0.00000000	      0.00000000	      0.00000000	      0.00000000	      0.00000000	      0.00000000	      0.00000000	      0.00000000	      0.00000000
      0.96000000	     -0.76328517	     -9.28959397	     87.45921229	      0.22148195	      0.94323539	      0.86095092	     -3.45047508	      3.06941311	      1.02849928	      7.58901900	      0.13245337	     10.60584859	      0.00000000	      0.00000000	     31.25201883	     -0.58488513	     -1.59847209	      3.26306226	      0.05695118	     -0.57997377	      0.00000000	      0.00000000	      2.85674833	     -2.21471634	      6.77916374	      0.00000000	      0.00000000	      0.00000000	      0.00000000	      0.00000000	      0.00000000	      0.00000000	      0.00000000	      0.00000000	      0.00000000	      0.00000000	      0.00000000	      0.00000000	      0.00000000
      0.97000000	     -0.77035700	     -9.41290636	     87.28203213	      0.22039829	      0.94120886	      0.85041642	     -3.75806308	      2.93630877	      1.07842124	      8.07133441	      0.14087136	     10.43226162	      0.00000000	     -0.00000000	     31.41548587	     -0.52287969	     -1.65526202	      3.53441145	      0.06168712	     -0.64084083	     -0.00000000	     -0.00000000	      3.16057050	     -2.16219173	      6.84757030	     -0.00000000	     -0.00000000	      0.00000000	      0.00000000	      0.00000000	     -0.00000000	     -0.00000000	     -0.00000000	      0.00000000	      0.00000000	      0.00000000	      0.00000000	     -0.00000000	     -0.00000000
      0.98000000	     -1.14010005	     -9.29791655	     87.17270812	      0.21903011	      0.93959613	      0.83956781	     -4.26844689	      2.39981463	      0.99275750	      8.74961676	      0.15270962	     11.52416307	      0.00000000	      0.00000000	     31.33450379	     -0.04321070	     -2.03835214	      4.02722734	      0.07028838	     -1.32578795	      0.00000000	      0.00000000	      3.17198513	     -2.58139445	      6.99001237	      0.00000000	      0.00000000	      0.00000000	      0.00000000	      0.00000000	      0.00000000	      0.00000000	      0.00000000	      0.00000000	      0.00000000	      0.00000000	      0.00000000	      0.00000000	      0.00000000
